<svg width="71" height="70" viewBox="0 0 71 70" fill="none" xmlns="http://www.w3.org/2000/svg">
<g id="_2467545151552">
<path id="Vector" d="M25.9292 43.4215H20.0469V49.3039H25.9292V43.4215Z" fill="#FAFAFA"/>
<path id="Vector_2" d="M34.4519 43.4215H28.5696V49.3039H34.4519V43.4215Z" fill="#FAFAFA"/>
<path id="Vector_3" d="M25.9292 52.0949H20.0469V57.9772H25.9292V52.0949Z" fill="#FAFAFA"/>
<path id="Vector_4" d="M34.4519 52.0949H28.5696V57.9772H34.4519V52.0949Z" fill="#FAFAFA"/>
<g id="Group">
<path id="Vector_5" d="M36.6825 39.5431C35.8351 40.2509 34.5736 40.1382 33.8658 39.2908C33.158 38.4435 33.2707 37.1819 34.1181 36.4741L36.6825 39.5431ZM45.904 31.8355L36.6825 39.5431L34.1181 36.4741L43.3396 28.7664L46.0815 28.9339L45.904 31.8355ZM43.3396 28.7664C44.187 28.0586 45.4485 28.1714 46.1563 29.0188C46.8641 29.8661 46.7514 31.1276 45.904 31.8355L43.3396 28.7664ZM62.2158 52.01L43.1621 31.668L46.0815 28.9339L65.1352 49.276L65.2156 51.9185L62.2158 52.01ZM65.1352 49.276C65.8899 50.082 65.8486 51.348 65.0426 52.1027C64.2365 52.8574 62.9705 52.8161 62.2158 52.01L65.1352 49.276ZM35.4187 4.0012V0.00111641L37.9407 0.0982438L40.4068 0.382927L42.8093 0.847353L45.1426 1.48147L47.4022 2.27635L49.5837 3.22083L51.6814 4.3071L53.6921 5.5251L55.6112 6.8659L57.4354 8.31946L59.1602 9.87908L60.7824 11.5336L62.2984 13.2752L63.704 15.0961L64.9957 16.9872L66.1701 18.941L67.2229 20.9483L68.1495 23.0013L68.9466 25.0935L69.6075 27.2158L70.1311 29.3593L70.5096 31.5184L70.7385 33.682L70.8133 35.8445L70.7284 37.9958L70.4783 40.127L70.0575 42.2292L69.4591 44.2912L68.6798 46.3018L67.7152 48.2511L66.5609 50.1267L65.2145 51.9163L62.1332 49.3653L63.2563 47.8726L64.2164 46.313L65.0191 44.6909L65.67 43.0118L66.1724 41.2803L66.5285 39.5029L66.7417 37.6865L66.8143 35.8378L66.7484 33.9656L66.5486 32.0777L66.2159 30.1821L65.7537 28.2875L65.1654 26.403L64.4553 24.5375L63.627 22.701L62.6836 20.9014L61.6297 19.1475L60.4686 17.4483L59.206 15.8128L57.8451 14.2487L56.3904 12.765L54.8464 11.3695L53.2187 10.0711L51.5095 8.87655L49.7243 7.79475L47.8678 6.83241L45.9431 5.99845L43.9548 5.29958L41.905 4.7425L39.7984 4.33501L37.6359 4.08493L35.4187 4.00009V4.0012ZM35.4187 4.0012C34.3146 4.0012 33.4181 3.10584 33.4181 2.0006C33.4181 0.896474 34.3135 0 35.4187 0V4.00009V4.0012ZM3.13669 45.3563L5.76806 48.3683L2.57849 47.5623L1.86622 45.45L1.29797 43.3255L0.870388 41.1943L0.581237 39.0631L0.427174 36.9363L0.404846 34.8196L0.510904 32.7196L0.742 30.6398L1.09478 28.5867L1.56591 26.5638L2.15202 24.5777L2.85089 22.6329L3.65806 20.7339L4.57016 18.8863L5.58386 17.0944L6.69691 15.3629L7.90598 13.6972L9.20771 12.1018L10.5999 10.5813L12.078 9.14114L13.6398 7.78694L15.2832 6.52205L17.0036 5.35317L18.7988 4.28477L20.6643 3.32354L22.5979 2.47284L24.5963 1.73936L26.6549 1.12757L28.7694 0.64305L30.9386 0.290266L33.1569 0.0747992L35.4187 0.00223281V4.00232L33.4125 4.06707L31.4521 4.25686L29.5375 4.56834L27.6708 4.99592L25.8556 5.53514L24.0939 6.18266L22.3869 6.93289L20.7391 7.78247L19.1515 8.72695L17.6288 9.76186L16.173 10.8827L14.7864 12.0851L13.4735 13.3645L12.2354 14.7165L11.0766 16.1365L10.0004 17.6191L9.00899 19.1609L8.10582 20.7562L7.29308 22.4018L6.57522 24.0909L5.9545 25.8203L5.43314 27.5842L5.01449 29.3782L4.70189 31.1991L4.49759 33.0401L4.40381 34.8978L4.42391 36.7677L4.56011 38.6466L4.81577 40.53L5.19311 42.4123L5.6955 44.2912L6.32627 46.1623L3.13669 45.3563ZM6.32627 46.1623C6.71254 47.1972 6.18672 48.3493 5.15181 48.7356C4.1169 49.1219 2.96477 48.5961 2.57849 47.5612L6.32515 46.1623H6.32627ZM27.4431 29.4352L5.76918 48.3683L3.13781 45.3563L24.8117 26.4231L27.6039 26.5805L27.4431 29.4352ZM24.8117 26.4231C25.6435 25.6963 26.9072 25.7823 27.634 26.614C28.3608 27.4457 28.2748 28.7095 27.4431 29.4363L24.8117 26.4242V26.4231ZM54.9045 62.3915L24.651 29.2778L27.6039 26.5794L57.8574 59.6931L57.4398 62.7387L54.9045 62.3915ZM57.8574 59.6931C58.602 60.5081 58.5451 61.7741 57.7301 62.5188C56.9151 63.2634 55.6491 63.2065 54.9045 62.3915L57.8574 59.6931ZM4.92518 52.6017L8.49656 50.801L9.3908 52.4488L10.352 53.9883L11.3769 55.4229L12.462 56.7548L13.6052 57.9884L14.8031 59.1238L16.0524 60.1643L17.3508 61.1121L18.6961 61.9684L20.0849 62.7365L21.515 63.4164L22.9842 64.0092L24.4891 64.5171L26.0264 64.9414L27.5938 65.2819L29.188 65.5398L30.8046 65.7162L32.4401 65.8122L34.0924 65.8289L35.757 65.7675L37.4305 65.628L39.1084 65.4125L40.7875 65.1222L42.4632 64.7583L44.1334 64.3207L45.7935 63.8127L47.4391 63.2344L49.0668 62.588L50.6722 61.8746L52.253 61.0954L53.8048 60.2525L55.3231 59.3459L57.4409 62.7387L55.7853 63.7278L54.0928 64.6478L52.3691 65.4985L50.6164 66.2766L48.839 66.9822L47.0405 67.6141L45.2241 68.17L43.3932 68.649L41.5511 69.0486L39.7024 69.3679L37.8491 69.6057L35.9959 69.7598L34.1449 69.8279L32.3017 69.8089L30.4686 69.7017L28.6499 69.503L26.8492 69.2116L25.0707 68.8253L23.318 68.3431L21.5954 67.7614L19.9074 67.0804L18.2584 66.2967L16.653 65.4091L15.0956 64.4167L13.5918 63.3181L12.145 62.1135L10.7606 60.8006L9.44327 59.3794L8.19736 57.8488L7.02737 56.21L5.93552 54.4617L4.92852 52.604L4.92518 52.6017ZM4.92518 52.6017C4.42726 51.6159 4.8247 50.4136 5.81049 49.9157C6.79627 49.4177 7.99864 49.8152 8.49656 50.801L4.92518 52.6017Z" fill="#008000"/>
</g>
</g>
</svg>
