<svg width="14" height="21" viewBox="0 0 14 21" fill="none" xmlns="http://www.w3.org/2000/svg">
<g id="location">
<path id="Vector" d="M14 7.09998C14 6.18072 13.8189 5.27047 13.4672 4.42119C13.1154 3.57191 12.5998 2.80024 11.9497 2.15023C11.2997 1.50022 10.5281 0.984602 9.67878 0.632819C8.8295 0.281036 7.91925 0.0999756 7 0.0999756C6.08075 0.0999756 5.17049 0.281036 4.32122 0.632819C3.47194 0.984602 2.70026 1.50022 2.05025 2.15023C1.40024 2.80024 0.884626 3.57191 0.532843 4.42119C0.18106 5.27047 -1.36979e-08 6.18072 0 7.09998C0 8.48698 0.409 9.77698 1.105 10.865H1.097L7 20.1L12.903 10.865H12.896C13.6169 9.74156 14.0001 8.43479 14 7.09998ZM7 10.1C6.20435 10.1 5.44129 9.78391 4.87868 9.2213C4.31607 8.65869 4 7.89563 4 7.09998C4 6.30433 4.31607 5.54126 4.87868 4.97866C5.44129 4.41605 6.20435 4.09998 7 4.09998C7.79565 4.09998 8.55871 4.41605 9.12132 4.97866C9.68393 5.54126 10 6.30433 10 7.09998C10 7.89563 9.68393 8.65869 9.12132 9.2213C8.55871 9.78391 7.79565 10.1 7 10.1Z" fill="#BCBCBC"/>
</g>
</svg>
