<svg width="71" height="70" viewBox="0 0 71 70" fill="none" xmlns="http://www.w3.org/2000/svg">
<g id="_2467545151552">
<path id="Vector" d="M25.9292 43.4215H20.0469V49.3039H25.9292V43.4215Z" fill="#FAFAFA"/>
<path id="Vector_2" d="M34.4519 43.4215H28.5696V49.3039H34.4519V43.4215Z" fill="#FAFAFA"/>
<path id="Vector_3" d="M25.9292 52.0948H20.0469V57.9772H25.9292V52.0948Z" fill="#FAFAFA"/>
<path id="Vector_4" d="M34.4519 52.0948H28.5696V57.9772H34.4519V52.0948Z" fill="#FAFAFA"/>
<g id="Group">
<path id="Vector_5" d="M36.6824 39.5431C35.8351 40.2509 34.5735 40.1382 33.8657 39.2908C33.1579 38.4435 33.2707 37.1819 34.118 36.4741L36.6824 39.5431ZM45.9039 31.8355L36.6824 39.5431L34.118 36.4741L43.3396 28.7664L46.0815 28.9339L45.9039 31.8355ZM43.3396 28.7664C44.1869 28.0586 45.4484 28.1714 46.1562 29.0188C46.864 29.8661 46.7513 31.1276 45.9039 31.8355L43.3396 28.7664ZM62.2158 52.01L43.162 31.668L46.0815 28.9339L65.1352 49.276L65.2155 51.9185L62.2158 52.01ZM65.1352 49.276C65.8899 50.082 65.8485 51.348 65.0425 52.1027C64.2365 52.8574 62.9704 52.8161 62.2158 52.01L65.1352 49.276ZM35.4186 4.0012V0.00111641L37.9406 0.0982438L40.4068 0.382927L42.8093 0.847353L45.1425 1.48147L47.4022 2.27635L49.5836 3.22083L51.6813 4.3071L53.692 5.5251L55.6111 6.8659L57.4353 8.31946L59.1602 9.87908L60.7823 11.5336L62.2984 13.2752L63.7039 15.0961L64.9956 16.9872L66.1701 18.941L67.2228 20.9483L68.1495 23.0013L68.9466 25.0935L69.6075 27.2158L70.1311 29.3593L70.5095 31.5184L70.7384 33.682L70.8132 35.8445L70.7284 37.9958L70.4783 40.127L70.0574 42.2292L69.459 44.2912L68.6798 46.3018L67.7152 48.2511L66.5608 50.1267L65.2144 51.9163L62.1331 49.3653L63.2562 47.8726L64.2164 46.313L65.0191 44.6909L65.6699 43.0118L66.1723 41.2803L66.5284 39.5029L66.7417 37.6865L66.8142 35.8378L66.7484 33.9656L66.5485 32.0777L66.2158 30.1821L65.7536 28.2875L65.1653 26.403L64.4553 24.5375L63.6269 22.701L62.6835 20.9014L61.6296 19.1475L60.4686 17.4483L59.2059 15.8128L57.845 14.2487L56.3903 12.765L54.8464 11.3695L53.2186 10.0711L51.5094 8.87655L49.7243 7.79475L47.8677 6.83241L45.943 5.99845L43.9547 5.29958L41.905 4.7425L39.7983 4.33501L37.6358 4.08493L35.4186 4.00009V4.0012ZM35.4186 4.0012C34.3145 4.0012 33.418 3.10584 33.418 2.0006C33.418 0.896474 34.3134 0 35.4186 0V4.00009V4.0012ZM3.13663 45.3563L5.768 48.3683L2.57843 47.5623L1.86616 45.45L1.29791 43.3255L0.870327 41.1943L0.581176 39.0631L0.427113 36.9363L0.404785 34.8196L0.510843 32.7196L0.741939 30.6398L1.09472 28.5867L1.56585 26.5638L2.15196 24.5777L2.85083 22.6329L3.65799 20.7339L4.5701 18.8863L5.5838 17.0944L6.69685 15.3629L7.90592 13.6972L9.20765 12.1018L10.5998 10.5813L12.0779 9.14114L13.6398 7.78694L15.2831 6.52205L17.0035 5.35317L18.7987 4.28477L20.6642 3.32354L22.5978 2.47284L24.5962 1.73936L26.6549 1.12757L28.7693 0.64305L30.9385 0.290266L33.1568 0.0747992L35.4186 0.00223281V4.00232L33.4125 4.06707L31.4521 4.25686L29.5374 4.56834L27.6708 4.99592L25.8555 5.53514L24.0938 6.18266L22.3868 6.93289L20.739 7.78247L19.1515 8.72695L17.6287 9.76186L16.1729 10.8827L14.7863 12.0851L13.4734 13.3645L12.2353 14.7165L11.0765 16.1365L10.0003 17.6191L9.00893 19.1609L8.10576 20.7562L7.29301 22.4018L6.57516 24.0909L5.95444 25.8203L5.43308 27.5842L5.01443 29.3782L4.70183 31.1991L4.49753 33.0401L4.40375 34.8978L4.42385 36.7677L4.56005 38.6466L4.81571 40.53L5.19305 42.4123L5.69544 44.2912L6.32621 46.1623L3.13663 45.3563ZM6.32621 46.1623C6.71248 47.1972 6.18665 48.3493 5.15175 48.7356C4.11684 49.1219 2.9647 48.5961 2.57843 47.5612L6.32509 46.1623H6.32621ZM27.443 29.4352L5.76912 48.3683L3.13775 45.3563L24.8117 26.4231L27.6038 26.5805L27.443 29.4352ZM24.8117 26.4231C25.6434 25.6963 26.9072 25.7823 27.6339 26.614C28.3607 27.4457 28.2748 28.7095 27.443 29.4363L24.8117 26.4242V26.4231ZM54.9044 62.3915L24.6509 29.2778L27.6038 26.5794L57.8573 59.6931L57.4398 62.7387L54.9044 62.3915ZM57.8573 59.6931C58.6019 60.5081 58.545 61.7741 57.73 62.5188C56.9151 63.2634 55.6491 63.2065 54.9044 62.3915L57.8573 59.6931ZM4.92511 52.6017L8.4965 50.801L9.39074 52.4488L10.352 53.9883L11.3768 55.4229L12.462 56.7548L13.6052 57.9884L14.8031 59.1238L16.0523 60.1643L17.3507 61.1121L18.696 61.9684L20.0848 62.7365L21.5149 63.4164L22.9841 64.0092L24.489 64.5171L26.0263 64.9414L27.5938 65.2819L29.188 65.5398L30.8045 65.7162L32.4401 65.8122L34.0924 65.8289L35.7569 65.7675L37.4304 65.628L39.1084 65.4125L40.7874 65.1222L42.4632 64.7583L44.1333 64.3207L45.7934 63.8127L47.439 63.2344L49.0667 62.588L50.6721 61.8746L52.2529 61.0954L53.8048 60.2525L55.3231 59.3459L57.4409 62.7387L55.7853 63.7278L54.0928 64.6478L52.3691 65.4985L50.6163 66.2766L48.839 66.9822L47.0404 67.6141L45.2241 68.17L43.3931 68.649L41.5511 69.0486L39.7023 69.3679L37.8491 69.6057L35.9958 69.7598L34.1448 69.8279L32.3016 69.8089L30.4685 69.7017L28.6499 69.503L26.8491 69.2116L25.0707 68.8253L23.3179 68.3431L21.5953 67.7614L19.9073 67.0804L18.2584 66.2967L16.653 65.4091L15.0956 64.4167L13.5918 63.3181L12.1449 62.1135L10.7606 60.8006L9.44321 59.3794L8.1973 57.8488L7.02731 56.21L5.93546 54.4617L4.92846 52.604L4.92511 52.6017ZM4.92511 52.6017C4.4272 51.6159 4.82464 50.4136 5.81043 49.9157C6.79621 49.4177 7.99858 49.8152 8.4965 50.801L4.92511 52.6017Z" fill="#008000"/>
</g>
</g>
</svg>
