<svg width="70" height="69" viewBox="0 0 70 69" fill="none" xmlns="http://www.w3.org/2000/svg">
<g id="_2467545151552">
<path id="Vector" d="M25.6063 42.8536H19.8271V48.659H25.6063V42.8536Z" fill="#E87C00"/>
<path id="Vector_2" d="M33.9793 42.8536H28.2002V48.659H33.9793V42.8536Z" fill="#E87C00"/>
<path id="Vector_3" d="M25.6063 51.4135H19.8271V57.2189H25.6063V51.4135Z" fill="#E87C00"/>
<path id="Vector_4" d="M33.9793 51.4135H28.2002V57.2189H33.9793V51.4135Z" fill="#E87C00"/>
<g id="Group">
<path id="Vector_5" d="M36.1705 39.0259C35.338 39.7245 34.0986 39.6132 33.4032 38.7769C32.7078 37.9406 32.8186 36.6956 33.6511 35.9971L36.1705 39.0259ZM45.2302 31.4191L36.1705 39.0259L33.6511 35.9971L42.7108 28.3902L45.4046 28.5555L45.2302 31.4191ZM42.7108 28.3902C43.5433 27.6917 44.7827 27.8029 45.4781 28.6392C46.1735 29.4755 46.0627 30.7205 45.2302 31.4191L42.7108 28.3902ZM61.2559 51.3298L42.5364 31.2538L45.4046 28.5555L64.124 48.6314L64.203 51.2394L61.2559 51.3298ZM64.124 48.6314C64.8655 49.427 64.8249 50.6764 64.033 51.4212C63.2411 52.166 61.9973 52.1253 61.2559 51.3298L64.124 48.6314ZM34.9289 3.94887V0.0011018L37.4066 0.0969588L39.8295 0.377919L42.1898 0.83627L44.4822 1.46209L46.7021 2.24658L48.8453 3.17871L50.9063 4.25076L52.8816 5.45283L54.7671 6.7761L56.5593 8.21065L58.2539 9.74987L59.8475 11.3827L61.337 13.1016L62.7179 14.8986L63.9869 16.7651L65.1408 18.6932L66.1751 20.6743L67.0855 22.7005L67.8686 24.7653L68.5179 26.8598L69.0323 28.9753L69.4041 31.1061L69.629 33.2414L69.7025 35.3756L69.6191 37.4988L69.3734 39.6022L68.9599 41.6769L68.372 43.7119L67.6065 45.6962L66.6588 47.62L65.5247 49.471L64.2019 51.2372L61.1747 48.7196L62.2781 47.2465L63.2214 45.7073L64.01 44.1063L64.6494 42.4492L65.143 40.7403L65.4929 38.9863L65.7024 37.1936L65.7737 35.369L65.709 33.5213L65.5126 31.6581L65.1858 29.7873L64.7317 27.9175L64.1537 26.0577L63.4561 24.2166L62.6422 22.4041L61.7154 20.628L60.68 18.8971L59.5393 17.2201L58.2988 15.606L56.9618 14.0623L55.5326 12.598L54.0157 11.2208L52.4166 9.93938L50.7374 8.76045L48.9835 7.6928L47.1595 6.74304L45.2686 5.92L43.3152 5.23027L41.3014 4.68047L39.2317 4.27831L37.1072 4.0315L34.9289 3.94777V3.94887ZM34.9289 3.94887C33.8441 3.94887 32.9634 3.06522 32.9634 1.97443C32.9634 0.884749 33.843 0 34.9289 0V3.94777V3.94887ZM3.21322 44.763L5.79842 47.7357L2.6648 46.9402L1.96503 44.8556L1.40675 42.7588L0.986671 40.6555L0.702593 38.5521L0.551233 36.4532L0.529297 34.3642L0.633494 32.2917L0.860535 30.239L1.20713 28.2128L1.66999 26.2163L2.24582 24.2562L2.93243 22.3369L3.72543 20.4627L4.62153 18.6392L5.61745 16.8708L6.71098 15.1619L7.89883 13.518L9.17773 11.9436L10.5455 10.4429L11.9977 9.02158L13.5321 7.68509L15.1466 6.43674L16.8368 5.28315L18.6005 4.22873L20.4333 3.28007L22.333 2.4405L24.2963 1.71661L26.3188 1.11282L28.3962 0.634639L30.5273 0.286469L32.7067 0.0738209L34.9289 0.00220361V3.94997L32.9579 4.01387L31.0319 4.20118L29.1508 4.50858L27.3169 4.93058L25.5335 5.46275L23.8027 6.10179L22.1257 6.84221L20.5068 7.68068L18.9471 8.61281L17.451 9.63418L16.0208 10.7404L14.6585 11.927L13.3687 13.1897L12.1523 14.524L11.0138 15.9255L9.95647 17.3887L8.98249 18.9103L8.09516 20.4848L7.29668 22.1088L6.59142 23.7758L5.98159 25.4825L5.46938 27.2234L5.05807 28.994L4.75096 30.791L4.55024 32.6079L4.45811 34.4413L4.47785 36.2868L4.61166 38.1412L4.86283 39.9999L5.23356 41.8576L5.72713 43.7119L6.34683 45.5585L3.21322 44.763ZM6.34683 45.5585C6.72633 46.5799 6.20973 47.7169 5.19298 48.0982C4.17622 48.4794 3.0443 47.9605 2.6648 46.9391L6.34574 45.5585H6.34683ZM27.0932 29.0502L5.79952 47.7357L3.21431 44.763L24.508 26.0775L27.2511 26.2329L27.0932 29.0502ZM24.508 26.0775C25.3251 25.3602 26.5667 25.4451 27.2807 26.2659C27.9948 27.0868 27.9103 28.334 27.0932 29.0513L24.508 26.0786V26.0775ZM54.0728 61.5755L24.35 28.8948L27.2511 26.2318L56.9739 58.9124L56.5637 61.9181L54.0728 61.5755ZM56.9739 58.9124C57.7055 59.7167 57.6495 60.9662 56.8488 61.7011C56.0482 62.436 54.8044 62.3798 54.0728 61.5755L56.9739 58.9124ZM4.97032 51.9137L8.47905 50.1365L9.3576 51.7628L10.302 53.2822L11.3088 54.698L12.375 56.0124L13.4981 57.2299L14.675 58.3505L15.9023 59.3774L17.1779 60.3128L18.4996 61.1579L19.864 61.9159L21.2691 62.5869L22.7125 63.172L24.191 63.6733L25.7013 64.092L27.2413 64.428L28.8075 64.6825L30.3957 64.8566L32.0026 64.9514L33.6259 64.9679L35.2612 64.9073L36.9053 64.7696L38.5539 64.5569L40.2035 64.2705L41.8498 63.9113L43.4907 63.4794L45.1216 62.9781L46.7383 62.4073L48.3375 61.7694L49.9147 61.0653L51.4678 60.2963L52.9924 59.4644L54.4841 58.5697L56.5648 61.9181L54.9382 62.8943L53.2754 63.8022L51.5819 64.6418L49.8599 65.4097L48.1138 66.1061L46.3468 66.7297L44.5623 67.2784L42.7635 67.7511L40.9537 68.1455L39.1374 68.4606L37.3167 68.6953L35.4959 68.8474L33.6774 68.9146L31.8666 68.8958L30.0656 68.7901L28.2789 68.5939L26.5097 68.3064L24.7624 67.9251L23.0404 67.4492L21.348 66.8751L19.6897 66.203L18.0696 65.4296L16.4924 64.5536L14.9624 63.5741L13.4849 62.49L12.0635 61.3011L10.7034 60.0054L9.40915 58.6028L8.1851 57.0922L7.03564 55.4748L5.96294 53.7493L4.97361 51.9159L4.97032 51.9137ZM4.97032 51.9137C4.48114 50.9408 4.87161 49.7542 5.8401 49.2628C6.80859 48.7714 7.98987 49.1636 8.47905 50.1365L4.97032 51.9137Z" fill="#008000"/>
</g>
</g>
</svg>
