<svg width="111" height="13" viewBox="0 0 111 13" fill="none" xmlns="http://www.w3.org/2000/svg">
<g id="SmartRentHub">
<path d="M4.51194 12.1745C3.03582 12.1745 1.91378 11.8439 1.1458 11.1826C0.387792 10.5214 0.00878906 9.65971 0.00878906 8.59769H2.37257C2.39252 9.13872 2.57204 9.57455 2.91115 9.90518C3.26023 10.2258 3.82375 10.3861 4.6017 10.3861C5.20013 10.3861 5.67887 10.2759 6.03792 10.0555C6.39698 9.83504 6.57651 9.50943 6.57651 9.0786C6.57651 8.72794 6.5017 8.45742 6.3521 8.26706C6.20249 8.06668 5.94317 7.91138 5.57414 7.80117C5.20512 7.69096 4.69147 7.58075 4.0332 7.47054C2.77651 7.27016 1.829 6.92951 1.19068 6.4486C0.552359 5.95766 0.233199 5.23629 0.233199 4.28447C0.233199 3.25251 0.612201 2.44096 1.37021 1.84984C2.12821 1.24869 3.17047 0.94812 4.49698 0.94812C5.35472 0.94812 6.09278 1.08338 6.71115 1.35389C7.32953 1.62441 7.80827 2.00513 8.14737 2.49607C8.49645 2.987 8.671 3.55809 8.671 4.20933H6.32218C6.30223 3.67832 6.10774 3.2976 5.73871 3.06716C5.37966 2.83672 4.94081 2.7215 4.42218 2.7215C3.87362 2.7215 3.43976 2.83672 3.1206 3.06716C2.81141 3.28758 2.65682 3.59316 2.65682 3.9839C2.65682 4.32455 2.74658 4.58004 2.92611 4.75036C3.10564 4.92069 3.38491 5.05093 3.76391 5.14111C4.15288 5.23128 4.66155 5.33147 5.28989 5.44168C5.74868 5.51181 6.1975 5.60699 6.63635 5.72722C7.07519 5.84745 7.46916 6.02779 7.81824 6.26825C8.17729 6.49869 8.46155 6.82431 8.671 7.24511C8.89042 7.65589 9.00013 8.19192 9.00013 8.85318C9.00013 9.83505 8.62113 10.6366 7.86312 11.2578C7.11509 11.8689 5.99803 12.1745 4.51194 12.1745Z" fill="#E87C00"/>
<path d="M10.5089 12.0392V3.9839H12.6333L12.7081 5.44168H12.7979C12.9974 4.91067 13.3215 4.5099 13.7704 4.23939C14.2192 3.96887 14.7129 3.83362 15.2515 3.83362C15.81 3.83362 16.3186 3.96887 16.7774 4.23939C17.2362 4.5099 17.5753 4.97579 17.7948 5.63705H17.9144C18.1039 5.03591 18.4381 4.58505 18.9168 4.28447C19.4055 3.9839 19.9541 3.83362 20.5625 3.83362C21.0811 3.83362 21.5449 3.94383 21.9538 4.16424C22.3627 4.38466 22.6869 4.74034 22.9263 5.23128C23.1756 5.71219 23.3003 6.35842 23.3003 7.16997V12.0392H21.1011V7.65089C21.1011 6.96959 20.9864 6.46362 20.757 6.133C20.5375 5.80237 20.1785 5.63705 19.6798 5.63705C19.1512 5.63705 18.7373 5.83242 18.4381 6.22317C18.1488 6.60389 18.0042 7.04974 18.0042 7.56071V12.0392H15.805V7.65089C15.805 6.96959 15.6903 6.46362 15.4609 6.133C15.2415 5.80237 14.8824 5.63705 14.3837 5.63705C13.8452 5.63705 13.4312 5.83242 13.142 6.22317C12.8528 6.60389 12.7081 7.04974 12.7081 7.56071V12.0392H10.5089Z" fill="#E87C00"/>
<path d="M27.8272 12.1745C26.8697 12.1745 26.0967 11.8288 25.5083 11.1375C24.9198 10.4362 24.6256 9.39421 24.6256 8.01157C24.6256 6.61892 24.9198 5.57694 25.5083 4.88562C26.0967 4.18428 26.8697 3.83362 27.8272 3.83362C28.4455 3.83362 28.9741 3.97388 29.413 4.25442C29.8618 4.53495 30.181 4.91067 30.3705 5.38156H30.4901L30.5799 3.9839H32.6894V12.0392H30.4901V10.6266H30.3705C30.181 11.0874 29.8618 11.4631 29.413 11.7537C28.9741 12.0342 28.4455 12.1745 27.8272 12.1745ZM28.6649 10.3861C29.0739 10.3861 29.408 10.2909 29.6673 10.1006C29.9366 9.91019 30.1361 9.66472 30.2657 9.36415C30.3954 9.05356 30.4602 8.72794 30.4602 8.38729V7.62083C30.4602 7.27016 30.3954 6.94454 30.2657 6.64397C30.1361 6.3434 29.9366 6.09793 29.6673 5.90757C29.408 5.7172 29.0739 5.62202 28.6649 5.62202C28.1264 5.62202 27.6925 5.81739 27.3634 6.20814C27.0342 6.58886 26.8697 7.19001 26.8697 8.01157C26.8697 8.82312 27.0342 9.42426 27.3634 9.81501C27.6925 10.1957 28.1264 10.3861 28.6649 10.3861Z" fill="#E87C00"/>
<path d="M34.5716 12.0392V3.9839H36.5614L36.6511 5.27636H36.7259C36.9054 4.75537 37.1897 4.39468 37.5787 4.1943C37.9776 3.9839 38.4314 3.8787 38.9401 3.8787H39.3889V5.95265H38.8952C38.1572 5.95265 37.6236 6.11797 37.2944 6.4486C36.9653 6.76921 36.7908 7.23008 36.7708 7.83123V12.0392H34.5716Z" fill="#E87C00"/>
<path d="M43.5311 12.0392C42.9926 12.0392 42.5737 11.9591 42.2744 11.7988C41.9752 11.6385 41.7658 11.4131 41.6461 11.1225C41.5364 10.8219 41.4815 10.4713 41.4815 10.0705V5.75728H40.0453V3.9839H41.4815V1.78972L43.6658 1.57932V3.9839H45.2815V5.75728H43.6658V9.64969C43.6658 9.89015 43.7206 10.0505 43.8303 10.1306C43.9401 10.2108 44.0996 10.2508 44.3091 10.2508H45.2815V12.0392H43.5311Z" fill="#E87C00"/>
<path d="M46.8788 12.0392V1.08338H52.2646C53.5413 1.08338 54.4938 1.35389 55.1221 1.89492C55.7505 2.43595 56.0646 3.21243 56.0646 4.22436C56.0646 4.8756 55.8951 5.44168 55.556 5.92259C55.2268 6.39349 54.7681 6.69907 54.1796 6.83934V6.94454C55.2568 7.15494 55.7953 7.86129 55.7953 9.06358V10.7768C55.7953 10.9772 55.8003 11.1876 55.8103 11.408C55.8303 11.6184 55.8901 11.8288 55.9898 12.0392H53.641C53.5712 11.899 53.5213 11.7236 53.4914 11.5132C53.4715 11.2928 53.4615 11.0474 53.4615 10.7768V9.46935C53.4615 8.99845 53.3468 8.63776 53.1174 8.38729C52.898 8.13681 52.4591 8.01157 51.8009 8.01157H49.2127V12.0392H46.8788ZM49.2127 6.14802H51.9205C52.5589 6.14802 53.0127 5.99774 53.282 5.69716C53.5513 5.38657 53.6859 5.00084 53.6859 4.53996C53.6859 3.98891 53.5213 3.59817 53.1922 3.36773C52.873 3.13729 52.4492 3.02207 51.9205 3.02207H49.2127V6.14802Z" fill="#E87C00"/>
<path d="M60.9812 12.1745C60.1434 12.1745 59.4253 12.0042 58.8269 11.6635C58.2384 11.3229 57.7846 10.847 57.4654 10.2358C57.1463 9.61462 56.9867 8.89325 56.9867 8.07169C56.9867 7.20003 57.1463 6.4486 57.4654 5.81739C57.7946 5.18619 58.2534 4.70027 58.8418 4.35962C59.4303 4.00895 60.1185 3.83362 60.9064 3.83362C61.834 3.83362 62.5969 4.03901 63.1954 4.44979C63.7938 4.85055 64.2227 5.40661 64.482 6.11797C64.7413 6.8193 64.8261 7.61582 64.7363 8.50752H59.156C59.146 9.14874 59.3106 9.64468 59.6497 9.99535C59.9888 10.336 60.4326 10.5063 60.9812 10.5063C61.4001 10.5063 61.7542 10.4162 62.0434 10.2358C62.3426 10.0454 62.5321 9.79497 62.6119 9.48438H64.6914C64.6216 10.0254 64.4172 10.4963 64.078 10.8971C63.7489 11.2978 63.32 11.6134 62.7914 11.8439C62.2628 12.0643 61.6594 12.1745 60.9812 12.1745ZM60.9064 5.50179C60.4077 5.50179 60.0038 5.64707 59.6946 5.93762C59.3854 6.21816 59.2109 6.60389 59.171 7.09483H62.582C62.5521 6.5538 62.3775 6.15303 62.0584 5.89254C61.7492 5.63204 61.3652 5.50179 60.9064 5.50179Z" fill="#E87C00"/>
<path d="M66.173 12.0392V3.9839H68.2825L68.3722 5.44168H68.462C68.6814 4.91067 69.0205 4.5099 69.4793 4.23939C69.9381 3.96887 70.4518 3.83362 71.0203 3.83362C71.5588 3.83362 72.0376 3.94383 72.4565 4.16424C72.8853 4.38466 73.2244 4.74034 73.4738 5.23128C73.7231 5.71219 73.8478 6.35842 73.8478 7.16997V12.0392H71.6486V7.65089C71.6486 6.96959 71.5289 6.46362 71.2895 6.133C71.0502 5.80237 70.6662 5.63705 70.1376 5.63705C69.5691 5.63705 69.1302 5.83242 68.821 6.22317C68.5218 6.60389 68.3722 7.04974 68.3722 7.56071V12.0392H66.173Z" fill="#E87C00"/>
<path d="M78.0984 12.0392C77.5598 12.0392 77.1409 11.9591 76.8417 11.7988C76.5425 11.6385 76.333 11.4131 76.2133 11.1225C76.1036 10.8219 76.0488 10.4713 76.0488 10.0705V5.75728H74.6126V3.9839H76.0488V1.78972L78.233 1.57932V3.9839H79.8488V5.75728H78.233V9.64969C78.233 9.89015 78.2879 10.0505 78.3976 10.1306C78.5073 10.2108 78.6669 10.2508 78.8763 10.2508H79.8488V12.0392H78.0984Z" fill="#E87C00"/>
<path d="M81.4461 12.0392V1.08338H83.7799V5.48676H88.9114V1.08338H91.2453V12.0392H88.9114V7.48557H83.7799V12.0392H81.4461Z" fill="#E87C00"/>
<path d="M96.1303 12.1745C95.2027 12.1745 94.4946 11.904 94.0059 11.363C93.5171 10.8219 93.2728 10.0354 93.2728 9.00346V3.9839H95.472V8.41735C95.472 9.05857 95.5867 9.5495 95.8161 9.89015C96.0555 10.2208 96.4494 10.3861 96.998 10.3861C97.5565 10.3861 97.9854 10.1957 98.2846 9.81501C98.5938 9.42426 98.7484 8.96339 98.7484 8.43237V3.9839H100.948V12.0392H98.8381L98.7484 10.5664H98.6437C98.4542 11.0874 98.13 11.4882 97.6712 11.7687C97.2224 12.0392 96.7087 12.1745 96.1303 12.1745Z" fill="#E87C00"/>
<path d="M107.619 12.1895C107 12.1895 106.467 12.0493 106.018 11.7687C105.579 11.4782 105.265 11.1025 105.075 10.6416H104.956L104.866 12.0392H102.756V1.08338H104.956V5.38156H105.075C105.265 4.91067 105.579 4.53495 106.018 4.25442C106.467 3.97388 107 3.83362 107.619 3.83362C108.576 3.83362 109.349 4.18428 109.938 4.88562C110.526 5.57694 110.82 6.61892 110.82 8.01157C110.82 9.39421 110.526 10.4362 109.938 11.1375C109.349 11.8389 108.576 12.1895 107.619 12.1895ZM106.781 10.4011C107.319 10.4011 107.753 10.2108 108.082 9.83004C108.412 9.43929 108.576 8.83314 108.576 8.01157C108.576 7.19001 108.412 6.58886 108.082 6.20814C107.753 5.81739 107.319 5.62202 106.781 5.62202C106.372 5.62202 106.033 5.7172 105.764 5.90757C105.494 6.09793 105.295 6.3484 105.165 6.659C105.035 6.95957 104.971 7.28018 104.971 7.62083V8.40232C104.971 8.74297 105.035 9.06859 105.165 9.37918C105.295 9.67975 105.494 9.92522 105.764 10.1156C106.033 10.3059 106.372 10.4011 106.781 10.4011Z" fill="#E87C00"/>
</g>
</svg>
