<svg width="114" height="13" viewBox="0 0 114 13" fill="none" xmlns="http://www.w3.org/2000/svg">
<g id="SmartRentHub">
<path d="M5.10133 12.2369C3.59885 12.2369 2.45677 11.9019 1.67507 11.2319C0.903532 10.5619 0.517761 9.68883 0.517761 8.61273H2.92375C2.94406 9.16093 3.12679 9.60254 3.47195 9.93755C3.82727 10.2624 4.40085 10.4248 5.19269 10.4248C5.8018 10.4248 6.28909 10.3132 6.65456 10.0898C7.02003 9.86648 7.20276 9.53655 7.20276 9.10002C7.20276 8.7447 7.12662 8.4706 6.97434 8.27772C6.82206 8.07468 6.55812 7.91733 6.1825 7.80566C5.80688 7.69399 5.28406 7.58232 4.61404 7.47065C3.3349 7.26761 2.37048 6.92245 1.72076 6.43516C1.07104 5.93771 0.746178 5.20678 0.746178 4.24235C0.746178 3.19671 1.13195 2.37441 1.90349 1.77545C2.67503 1.16634 3.7359 0.861786 5.0861 0.861786C5.95916 0.861786 6.71039 0.998836 7.33981 1.27294C7.96922 1.54704 8.45651 1.93281 8.80168 2.43025C9.15699 2.92769 9.33465 3.50635 9.33465 4.16622H6.94389C6.92358 3.62817 6.72562 3.2424 6.35 3.0089C5.98454 2.77541 5.53785 2.65867 5.00996 2.65867C4.45161 2.65867 4.01 2.77541 3.68514 3.0089C3.37043 3.23224 3.21308 3.54188 3.21308 3.9378C3.21308 4.28296 3.30445 4.54183 3.48718 4.71442C3.66991 4.887 3.95417 5.01897 4.33994 5.11034C4.73586 5.2017 5.2536 5.30322 5.89317 5.41489C6.36016 5.48596 6.81699 5.5824 7.26367 5.70422C7.71035 5.82604 8.11135 6.00878 8.46667 6.25242C8.83213 6.48592 9.12146 6.81585 9.33465 7.24223C9.55799 7.65845 9.66966 8.20158 9.66966 8.8716C9.66966 9.86648 9.28389 10.6786 8.51235 11.308C7.75096 11.9273 6.61395 12.2369 5.10133 12.2369Z" fill="#FAFAFA"/>
<path d="M11.2054 12.0999V3.9378H13.3678L13.4439 5.41489H13.5353C13.7383 4.87685 14.0682 4.47077 14.5251 4.19667C14.9819 3.92257 15.4844 3.78552 16.0326 3.78552C16.6011 3.78552 17.1189 3.92257 17.5858 4.19667C18.0528 4.47077 18.398 4.94283 18.6213 5.61286H18.7432C18.936 5.00374 19.2761 4.54691 19.7634 4.24235C20.2609 3.9378 20.8192 3.78552 21.4385 3.78552C21.9664 3.78552 22.4384 3.89719 22.8547 4.12053C23.2709 4.34387 23.6008 4.70426 23.8445 5.20171C24.0983 5.68899 24.2252 6.34379 24.2252 7.16609V12.0999H21.9867V7.65338C21.9867 6.96305 21.8699 6.45038 21.6364 6.11537C21.4131 5.78036 21.0476 5.61286 20.54 5.61286C20.002 5.61286 19.5807 5.81082 19.2761 6.20674C18.9817 6.59251 18.8345 7.04427 18.8345 7.56201V12.0999H16.596V7.65338C16.596 6.96305 16.4793 6.45038 16.2458 6.11537C16.0225 5.78036 15.657 5.61286 15.1494 5.61286C14.6012 5.61286 14.1799 5.81082 13.8855 6.20674C13.5911 6.59251 13.4439 7.04427 13.4439 7.56201V12.0999H11.2054Z" fill="#FAFAFA"/>
<path d="M28.8329 12.2369C27.8583 12.2369 27.0715 11.8867 26.4726 11.1862C25.8736 10.4756 25.5741 9.4198 25.5741 8.01885C25.5741 6.60774 25.8736 5.55194 26.4726 4.85147C27.0715 4.14084 27.8583 3.78552 28.8329 3.78552C29.4623 3.78552 30.0003 3.92765 30.447 4.2119C30.9039 4.49615 31.2287 4.87685 31.4216 5.35398H31.5434L31.6348 3.9378H33.7819V12.0999H31.5434V10.6685H31.4216C31.2287 11.1355 30.9039 11.5162 30.447 11.8106C30.0003 12.0948 29.4623 12.2369 28.8329 12.2369ZM29.6856 10.4248C30.1019 10.4248 30.4419 10.3284 30.7059 10.1355C30.98 9.94262 31.183 9.6939 31.315 9.38935C31.447 9.07464 31.513 8.7447 31.513 8.39954V7.62292C31.513 7.26761 31.447 6.93767 31.315 6.63312C31.183 6.32856 30.98 6.07984 30.7059 5.88696C30.4419 5.69407 30.1019 5.59763 29.6856 5.59763C29.1374 5.59763 28.6958 5.79559 28.3608 6.19151C28.0258 6.57728 27.8583 7.18639 27.8583 8.01885C27.8583 8.84115 28.0258 9.45026 28.3608 9.84618C28.6958 10.232 29.1374 10.4248 29.6856 10.4248Z" fill="#FAFAFA"/>
<path d="M35.6978 12.0999V3.9378H37.723L37.8144 5.24739H37.8906C38.0733 4.71949 38.3626 4.35403 38.7585 4.15099C39.1646 3.9378 39.6265 3.8312 40.1443 3.8312H40.6011V5.93264H40.0986C39.3474 5.93264 38.8042 6.10014 38.4692 6.43516C38.1342 6.76002 37.9565 7.227 37.9362 7.83611V12.0999H35.6978Z" fill="#FAFAFA"/>
<path d="M44.8173 12.0999C44.2691 12.0999 43.8427 12.0187 43.5382 11.8562C43.2336 11.6938 43.0204 11.4654 42.8986 11.171C42.7869 10.8664 42.7311 10.5111 42.7311 10.1051V5.73468H41.2692V3.9378H42.7311V1.71454L44.9543 1.50135V3.9378H46.5989V5.73468H44.9543V9.67867C44.9543 9.92232 45.0102 10.0847 45.1218 10.166C45.2335 10.2472 45.396 10.2878 45.6091 10.2878H46.5989V12.0999H44.8173Z" fill="#FAFAFA"/>
<path d="M48.2247 12.0999V0.998836H53.7067C55.0062 0.998836 55.9757 1.27294 56.6153 1.82114C57.2548 2.36934 57.5746 3.15611 57.5746 4.18144C57.5746 4.84131 57.402 5.41489 57.0569 5.90218C56.7219 6.37932 56.2549 6.68895 55.6559 6.83108V6.93767C56.7523 7.15086 57.3005 7.86657 57.3005 9.08479V10.8208C57.3005 11.0238 57.3056 11.237 57.3157 11.4603C57.336 11.6735 57.397 11.8867 57.4985 12.0999H55.1077C55.0366 11.9578 54.9859 11.7801 54.9554 11.5669C54.9351 11.3436 54.925 11.0949 54.925 10.8208V9.49594C54.925 9.0188 54.8082 8.65334 54.5747 8.39954C54.3514 8.14574 53.9047 8.01885 53.2347 8.01885H50.6003V12.0999H48.2247ZM50.6003 6.1306H53.3565C54.0062 6.1306 54.4681 5.97832 54.7422 5.67377C55.0163 5.35906 55.1534 4.96821 55.1534 4.50123C55.1534 3.94287 54.9859 3.54695 54.6509 3.31346C54.326 3.07997 53.8946 2.96322 53.3565 2.96322H50.6003V6.1306Z" fill="#FAFAFA"/>
<path d="M62.579 12.2369C61.7262 12.2369 60.9953 12.0644 60.3862 11.7192C59.7872 11.374 59.3253 10.8918 59.0004 10.2726C58.6756 9.64314 58.5131 8.91221 58.5131 8.07976C58.5131 7.19655 58.6756 6.43516 59.0004 5.79559C59.3354 5.15602 59.8024 4.66366 60.4014 4.31849C61.0003 3.96318 61.7008 3.78552 62.5028 3.78552C63.4469 3.78552 64.2236 3.99363 64.8327 4.40986C65.4418 4.81593 65.8783 5.37936 66.1423 6.10014C66.4062 6.81077 66.4925 7.61785 66.4011 8.52136H60.7212C60.711 9.17108 60.8785 9.6736 61.2237 10.0289C61.5688 10.3741 62.0206 10.5467 62.579 10.5467C63.0053 10.5467 63.3657 10.4553 63.6601 10.2726C63.9647 10.0797 64.1576 9.82588 64.2388 9.51117H66.3554C66.2844 10.0594 66.0763 10.5365 65.7311 10.9426C65.3961 11.3487 64.9596 11.6684 64.4215 11.9019C63.8835 12.1253 63.2693 12.2369 62.579 12.2369ZM62.5028 5.47581C61.9952 5.47581 61.5841 5.62301 61.2694 5.91741C60.9547 6.20166 60.777 6.59251 60.7364 7.08995H64.2083C64.1779 6.54175 64.0002 6.13568 63.6754 5.87173C63.3606 5.60778 62.9698 5.47581 62.5028 5.47581Z" fill="#FAFAFA"/>
<path d="M67.8635 12.0999V3.9378H70.0106L70.102 5.41489H70.1933C70.4167 4.87685 70.7618 4.47077 71.2288 4.19667C71.6958 3.92257 72.2186 3.78552 72.7973 3.78552C73.3455 3.78552 73.8328 3.89719 74.2591 4.12053C74.6957 4.34387 75.0408 4.70426 75.2946 5.20171C75.5484 5.68899 75.6753 6.34379 75.6753 7.16609V12.0999H73.4369V7.65338C73.4369 6.96305 73.315 6.45038 73.0714 6.11537C72.8277 5.78036 72.4369 5.61286 71.8988 5.61286C71.3202 5.61286 70.8735 5.81082 70.5588 6.20674C70.2542 6.59251 70.102 7.04427 70.102 7.56201V12.0999H67.8635Z" fill="#FAFAFA"/>
<path d="M80.0018 12.0999C79.4536 12.0999 79.0272 12.0187 78.7227 11.8562C78.4181 11.6938 78.2049 11.4654 78.0831 11.171C77.9714 10.8664 77.9156 10.5111 77.9156 10.1051V5.73468H76.4537V3.9378H77.9156V1.71454L80.1389 1.50135V3.9378H81.7835V5.73468H80.1389V9.67867C80.1389 9.92232 80.1947 10.0847 80.3064 10.166C80.418 10.2472 80.5805 10.2878 80.7937 10.2878H81.7835V12.0999H80.0018Z" fill="#FAFAFA"/>
<path d="M83.4093 12.0999V0.998836H85.7848V5.46058H91.0079V0.998836H93.3835V12.0999H91.0079V7.48587H85.7848V12.0999H83.4093Z" fill="#FAFAFA"/>
<path d="M98.3557 12.2369C97.4116 12.2369 96.6908 11.9628 96.1933 11.4146C95.6959 10.8664 95.4472 10.0695 95.4472 9.02388V3.9378H97.6857V8.43C97.6857 9.07971 97.8024 9.57716 98.0359 9.92232C98.2796 10.2573 98.6806 10.4248 99.2389 10.4248C99.8074 10.4248 100.244 10.232 100.548 9.84618C100.863 9.45026 101.021 8.98327 101.021 8.44522V3.9378H103.259V12.0999H101.112L101.021 10.6076H100.914C100.721 11.1355 100.391 11.5415 99.9242 11.8258C99.4673 12.0999 98.9445 12.2369 98.3557 12.2369Z" fill="#FAFAFA"/>
<path d="M110.049 12.2522C109.42 12.2522 108.877 12.11 108.42 11.8258C107.973 11.5314 107.653 11.1507 107.46 10.6837H107.339L107.247 12.0999H105.1V0.998836H107.339V5.35398H107.46C107.653 4.87685 107.973 4.49615 108.42 4.2119C108.877 3.92765 109.42 3.78552 110.049 3.78552C111.024 3.78552 111.811 4.14084 112.41 4.85147C113.008 5.55194 113.308 6.60774 113.308 8.01885C113.308 9.4198 113.008 10.4756 112.41 11.1862C111.811 11.8969 111.024 12.2522 110.049 12.2522ZM109.196 10.4401C109.745 10.4401 110.186 10.2472 110.521 9.86141C110.856 9.46549 111.024 8.8513 111.024 8.01885C111.024 7.18639 110.856 6.57728 110.521 6.19151C110.186 5.79559 109.745 5.59763 109.196 5.59763C108.78 5.59763 108.435 5.69407 108.161 5.88696C107.887 6.07984 107.684 6.33364 107.552 6.64834C107.42 6.9529 107.354 7.27776 107.354 7.62292V8.41477C107.354 8.75993 107.42 9.08987 107.552 9.40457C107.684 9.70913 107.887 9.95785 108.161 10.1507C108.435 10.3436 108.78 10.4401 109.196 10.4401Z" fill="#FAFAFA"/>
</g>
</svg>
