<svg width="26" height="15" viewBox="0 0 26 15" fill="none" xmlns="http://www.w3.org/2000/svg">
<path id="Vector" d="M25.0191 3.36214L14.1531 14.1251C14.0017 14.2756 13.8218 14.3951 13.6237 14.4765C13.4256 14.558 13.2132 14.6 12.9986 14.6C12.7841 14.6 12.5717 14.558 12.3736 14.4765C12.1755 14.3951 11.9956 14.2756 11.8441 14.1251L0.978212 3.36214C0.672018 3.05885 0.5 2.64749 0.5 2.21857C0.5 1.78965 0.672018 1.3783 0.978212 1.075C1.28441 0.771709 1.69969 0.601321 2.13272 0.601321C2.56574 0.601321 2.98103 0.771709 3.28722 1.075L13 10.6958L22.7128 1.07366C23.019 0.770365 23.4343 0.599976 23.8673 0.599976C24.3003 0.599976 24.7156 0.770365 25.0218 1.07366C25.328 1.37695 25.5 1.7883 25.5 2.21723C25.5 2.64615 25.328 3.0575 25.0218 3.36079L25.0191 3.36214Z" fill="#101010"/>
</svg>
